# xmcd
#
# Track frame offsets: 
#        150
#        56007
#        95937
#        157350
#        205572
#        252060
#        275852
#        300667
#
# Disc length: 4162 seconds
#
# Revision: 1
# Processed by: cddbd v1.5.2PL0 Copyright (c) Steve Scherf et al.
# Submitted via: ExactAudioCopy v0.99pb5
#
DISCID=76104008
DTITLE=Guitar Shorty - Blues Is All Right
DYEAR=1996
DGENRE=Blues
TTITLE0=Introduction - The Blues Is Alright
TTITLE1=The Thrill Is Gone
TTITLE2=History Of Judy
TTITLE3=How Blue Can You Get
TTITLE4=Never Make Your Move Too Soon
TTITLE5=How Come My Dog Don'T Bark When You Come Around
TTITLE6=Bump The Donkey
TTITLE7=Hard Life Blues
EXTD=
EXTT0=
EXTT1=
EXTT2=
EXTT3=
EXTT4=
EXTT5=
EXTT6=
EXTT7=
PLAYORDER=
